<svg xmlns="http://www.w3.org/2000/svg" width="169.21" height="35" viewBox="0 0 169.21 35"><rect class="svg__rect" x="0" y="0" width="68.84" height="35" fill="#005384"/><rect class="svg__rect" x="66.84" y="0" width="102.37" height="35" fill="#8FC965"/><path class="svg__text" d="M15.69 22L14.22 22L14.22 13.47L16.14 13.47L18.60 20.01L21.06 13.47L22.97 13.47L22.97 22L21.49 22L21.49 19.19L21.64 15.43L19.12 22L18.06 22L15.55 15.43L15.69 19.19L15.69 22ZM29.75 18.86L26.89 13.47L28.53 13.47L30.49 17.51L32.46 13.47L34.10 13.47L31.24 18.86L31.24 22L29.75 22L29.75 18.86ZM39.49 22L38.01 22L38.01 13.47L41.28 13.47Q42.71 13.47 43.55 14.21Q44.39 14.96 44.39 16.18L44.39 16.18Q44.39 17.44 43.56 18.13Q42.74 18.83 41.26 18.83L41.26 18.83L39.49 18.83L39.49 22ZM39.49 14.66L39.49 17.64L41.28 17.64Q42.07 17.64 42.48 17.27Q42.90 16.90 42.90 16.19L42.90 16.19Q42.90 15.50 42.48 15.09Q42.06 14.68 41.32 14.66L41.32 14.66L39.49 14.66ZM50.71 18.86L47.84 13.47L49.49 13.47L51.45 17.51L53.42 13.47L55.06 13.47L52.20 18.86L52.20 22L50.71 22L50.71 18.86Z" fill="#FFFFFF"/><path class="svg__text" d="M83.41 22L81.03 22L81.03 13.60L84.87 13.60Q86.01 13.60 86.85 13.98Q87.69 14.35 88.15 15.06Q88.60 15.76 88.60 16.71L88.60 16.71Q88.60 17.66 88.15 18.35Q87.69 19.05 86.85 19.42Q86.01 19.80 84.87 19.80L84.87 19.80L83.41 19.80L83.41 22ZM83.41 15.47L83.41 17.93L84.73 17.93Q85.46 17.93 85.83 17.61Q86.20 17.29 86.20 16.71L86.20 16.71Q86.20 16.12 85.83 15.80Q85.46 15.47 84.73 15.47L84.73 15.47L83.41 15.47ZM94.77 22L92.35 22L96.06 13.60L98.40 13.60L102.12 22L99.65 22L98.99 20.37L95.44 20.37L94.77 22ZM97.21 15.93L96.13 18.61L98.29 18.61L97.21 15.93ZM105.68 21.24L105.68 21.24L106.46 19.49Q107.03 19.86 107.77 20.09Q108.51 20.32 109.23 20.32L109.23 20.32Q110.60 20.32 110.61 19.64L110.61 19.64Q110.61 19.28 110.22 19.11Q109.83 18.93 108.96 18.74L108.96 18.74Q108.01 18.53 107.37 18.30Q106.74 18.06 106.28 17.55Q105.83 17.03 105.83 16.16L105.83 16.16Q105.83 15.39 106.25 14.77Q106.67 14.15 107.50 13.79Q108.34 13.43 109.55 13.43L109.55 13.43Q110.37 13.43 111.18 13.62Q111.98 13.80 112.60 14.17L112.60 14.17L111.87 15.93Q110.66 15.28 109.53 15.28L109.53 15.28Q108.82 15.28 108.50 15.49Q108.18 15.70 108.18 16.04L108.18 16.04Q108.18 16.37 108.56 16.54Q108.95 16.71 109.80 16.89L109.80 16.89Q110.76 17.10 111.39 17.33Q112.02 17.56 112.48 18.07Q112.94 18.58 112.94 19.46L112.94 19.46Q112.94 20.21 112.52 20.83Q112.11 21.44 111.27 21.80Q110.42 22.17 109.22 22.17L109.22 22.17Q108.20 22.17 107.24 21.92Q106.28 21.67 105.68 21.24ZM116.93 21.24L116.93 21.24L117.71 19.49Q118.28 19.86 119.02 20.09Q119.76 20.32 120.48 20.32L120.48 20.32Q121.85 20.32 121.86 19.64L121.86 19.64Q121.86 19.28 121.47 19.11Q121.08 18.93 120.21 18.74L120.21 18.74Q119.26 18.53 118.62 18.30Q117.99 18.06 117.53 17.55Q117.08 17.03 117.08 16.16L117.08 16.16Q117.08 15.39 117.50 14.77Q117.92 14.15 118.75 13.79Q119.59 13.43 120.80 13.43L120.80 13.43Q121.62 13.43 122.43 13.62Q123.23 13.80 123.85 14.17L123.85 14.17L123.12 15.93Q121.91 15.28 120.78 15.28L120.78 15.28Q120.07 15.28 119.75 15.49Q119.43 15.70 119.43 16.04L119.43 16.04Q119.43 16.37 119.81 16.54Q120.20 16.71 121.05 16.89L121.05 16.89Q122.01 17.10 122.64 17.33Q123.27 17.56 123.73 18.07Q124.19 18.58 124.19 19.46L124.19 19.46Q124.19 20.21 123.77 20.83Q123.36 21.44 122.52 21.80Q121.67 22.17 120.47 22.17L120.47 22.17Q119.45 22.17 118.49 21.92Q117.53 21.67 116.93 21.24ZM131.15 22L128.77 22L128.77 13.60L131.15 13.60L131.15 22ZM138.65 22L136.32 22L136.32 13.60L138.28 13.60L141.99 18.07L141.99 13.60L144.31 13.60L144.31 22L142.36 22L138.65 17.52L138.65 22ZM149.05 17.80L149.05 17.80Q149.05 16.54 149.65 15.54Q150.24 14.55 151.31 13.99Q152.38 13.43 153.73 13.43L153.73 13.43Q154.90 13.43 155.84 13.83Q156.78 14.22 157.40 14.97L157.40 14.97L155.89 16.33Q155.04 15.40 153.87 15.40L153.87 15.40Q153.85 15.40 153.85 15.40L153.85 15.40Q152.77 15.40 152.11 16.06Q151.45 16.71 151.45 17.80L151.45 17.80Q151.45 18.50 151.75 19.04Q152.05 19.59 152.59 19.89Q153.13 20.20 153.82 20.20L153.82 20.20Q154.51 20.20 155.11 19.93L155.11 19.93L155.11 17.62L157.21 17.62L157.21 21.10Q156.48 21.61 155.55 21.89Q154.62 22.17 153.68 22.17L153.68 22.17Q152.36 22.17 151.30 21.61Q150.24 21.05 149.65 20.05Q149.05 19.06 149.05 17.80Z" fill="#FFFFFF" x="79.84"/></svg>