<svg xmlns="http://www.w3.org/2000/svg" width="237.18" height="35" viewBox="0 0 237.18 35"><rect class="svg__rect" x="0" y="0" width="136.81" height="35" fill="#005384"/><rect class="svg__rect" x="134.81" y="0" width="102.37" height="35" fill="#8FC965"/><path class="svg__text" d="M15.70 22L14.22 22L14.22 13.47L17.48 13.47Q18.91 13.47 19.75 14.21Q20.59 14.96 20.59 16.18L20.59 16.18Q20.59 17.44 19.77 18.13Q18.95 18.83 17.46 18.83L17.46 18.83L15.70 18.83L15.70 22ZM15.70 14.66L15.70 17.64L17.48 17.64Q18.27 17.64 18.69 17.27Q19.10 16.90 19.10 16.19L19.10 16.19Q19.10 15.50 18.68 15.09Q18.26 14.68 17.52 14.66L17.52 14.66L15.70 14.66ZM26.91 18.86L24.05 13.47L25.70 13.47L27.66 17.51L29.62 13.47L31.26 13.47L28.40 18.86L28.40 22L26.91 22L26.91 18.86ZM34.91 18.19L34.91 18.19L34.91 17.39Q34.91 16.19 35.33 15.27Q35.76 14.35 36.56 13.85Q37.36 13.35 38.41 13.35L38.41 13.35Q39.82 13.35 40.68 14.12Q41.55 14.89 41.69 16.29L41.69 16.29L40.21 16.29Q40.10 15.37 39.67 14.96Q39.24 14.55 38.41 14.55L38.41 14.55Q37.44 14.55 36.93 15.26Q36.41 15.96 36.39 17.33L36.39 17.33L36.39 18.09Q36.39 19.47 36.89 20.20Q37.39 20.92 38.34 20.92L38.34 20.92Q39.21 20.92 39.65 20.53Q40.09 20.14 40.21 19.22L40.21 19.22L41.69 19.22Q41.56 20.59 40.68 21.35Q39.80 22.12 38.34 22.12L38.34 22.12Q37.32 22.12 36.54 21.63Q35.77 21.15 35.35 20.26Q34.92 19.37 34.91 18.19ZM45.73 18.00L45.73 18.00L45.73 17.52Q45.73 16.28 46.17 15.32Q46.61 14.37 47.42 13.86Q48.23 13.35 49.27 13.35Q50.31 13.35 51.12 13.85Q51.92 14.35 52.36 15.29Q52.80 16.23 52.81 17.48L52.81 17.48L52.81 17.96Q52.81 19.21 52.37 20.16Q51.94 21.10 51.13 21.61Q50.33 22.12 49.28 22.12L49.28 22.12Q48.24 22.12 47.43 21.61Q46.62 21.10 46.18 20.17Q45.73 19.23 45.73 18.00ZM47.21 17.46L47.21 17.96Q47.21 19.36 47.76 20.13Q48.31 20.90 49.28 20.90L49.28 20.90Q50.26 20.90 50.79 20.15Q51.32 19.40 51.32 17.96L51.32 17.96L51.32 17.51Q51.32 16.09 50.79 15.34Q50.25 14.58 49.27 14.58L49.27 14.58Q48.31 14.58 47.77 15.33Q47.22 16.09 47.21 17.46L47.21 17.46ZM59.73 22L57.27 22L57.27 13.47L59.79 13.47Q60.92 13.47 61.80 13.97Q62.67 14.48 63.15 15.40Q63.64 16.33 63.64 17.52L63.64 17.52L63.64 17.95Q63.64 19.16 63.15 20.08Q62.67 21.00 61.77 21.50Q60.88 22 59.73 22L59.73 22ZM58.75 14.66L58.75 20.82L59.72 20.82Q60.89 20.82 61.51 20.09Q62.14 19.36 62.15 17.99L62.15 17.99L62.15 17.52Q62.15 16.13 61.54 15.40Q60.94 14.66 59.79 14.66L59.79 14.66L58.75 14.66ZM73.68 22L68.10 22L68.10 13.47L73.64 13.47L73.64 14.66L69.58 14.66L69.58 17.02L73.09 17.02L73.09 18.19L69.58 18.19L69.58 20.82L73.68 20.82L73.68 22ZM77.44 19.42L77.44 19.42L78.92 19.42Q78.92 20.15 79.40 20.55Q79.88 20.95 80.78 20.95L80.78 20.95Q81.55 20.95 81.94 20.63Q82.33 20.32 82.33 19.80L82.33 19.80Q82.33 19.24 81.94 18.94Q81.54 18.63 80.51 18.32Q79.48 18.01 78.87 17.63L78.87 17.63Q77.70 16.90 77.70 15.72L77.70 15.72Q77.70 14.69 78.54 14.02Q79.39 13.35 80.73 13.35L80.73 13.35Q81.62 13.35 82.31 13.68Q83.01 14.01 83.41 14.61Q83.81 15.22 83.81 15.96L83.81 15.96L82.33 15.96Q82.33 15.29 81.91 14.91Q81.49 14.54 80.72 14.54L80.72 14.54Q79.99 14.54 79.59 14.85Q79.19 15.16 79.19 15.71L79.19 15.71Q79.19 16.18 79.62 16.50Q80.05 16.81 81.05 17.10Q82.05 17.40 82.65 17.78Q83.25 18.16 83.53 18.65Q83.81 19.13 83.81 19.79L83.81 19.79Q83.81 20.86 83.00 21.49Q82.18 22.12 80.78 22.12L80.78 22.12Q79.85 22.12 79.08 21.77Q78.30 21.43 77.87 20.83Q77.44 20.22 77.44 19.42ZM89.79 14.66L87.15 14.66L87.15 13.47L93.92 13.47L93.92 14.66L91.26 14.66L91.26 22L89.79 22L89.79 14.66ZM99.71 18.86L96.85 13.47L98.49 13.47L100.46 17.51L102.42 13.47L104.06 13.47L101.20 18.86L101.20 22L99.71 22L99.71 18.86ZM113.33 22L107.97 22L107.97 13.47L109.46 13.47L109.46 20.82L113.33 20.82L113.33 22ZM123.03 22L117.45 22L117.45 13.47L122.99 13.47L122.99 14.66L118.94 14.66L118.94 17.02L122.44 17.02L122.44 18.19L118.94 18.19L118.94 20.82L123.03 20.82L123.03 22Z" fill="#FFFFFF"/><path class="svg__text" d="M151.38 22L149.00 22L149.00 13.60L152.84 13.60Q153.98 13.60 154.82 13.98Q155.66 14.35 156.12 15.06Q156.57 15.76 156.57 16.71L156.57 16.71Q156.57 17.66 156.12 18.35Q155.66 19.05 154.82 19.42Q153.98 19.80 152.84 19.80L152.84 19.80L151.38 19.80L151.38 22ZM151.38 15.47L151.38 17.93L152.70 17.93Q153.43 17.93 153.80 17.61Q154.17 17.29 154.17 16.71L154.17 16.71Q154.17 16.12 153.80 15.80Q153.43 15.47 152.70 15.47L152.70 15.47L151.38 15.47ZM162.74 22L160.32 22L164.03 13.60L166.37 13.60L170.09 22L167.62 22L166.96 20.37L163.41 20.37L162.74 22ZM165.18 15.93L164.10 18.61L166.26 18.61L165.18 15.93ZM173.65 21.24L173.65 21.24L174.43 19.49Q175.00 19.86 175.74 20.09Q176.48 20.32 177.20 20.32L177.20 20.32Q178.57 20.32 178.58 19.64L178.58 19.64Q178.58 19.28 178.19 19.11Q177.80 18.93 176.93 18.74L176.93 18.74Q175.98 18.53 175.34 18.30Q174.71 18.06 174.25 17.55Q173.80 17.03 173.80 16.16L173.80 16.16Q173.80 15.39 174.22 14.77Q174.64 14.15 175.47 13.79Q176.31 13.43 177.52 13.43L177.52 13.43Q178.34 13.43 179.15 13.62Q179.95 13.80 180.57 14.17L180.57 14.17L179.84 15.93Q178.63 15.28 177.50 15.28L177.50 15.28Q176.79 15.28 176.47 15.49Q176.15 15.70 176.15 16.04L176.15 16.04Q176.15 16.37 176.53 16.54Q176.92 16.71 177.77 16.89L177.77 16.89Q178.73 17.10 179.36 17.33Q179.99 17.56 180.45 18.07Q180.91 18.58 180.91 19.46L180.91 19.46Q180.91 20.21 180.49 20.83Q180.08 21.44 179.24 21.80Q178.39 22.17 177.19 22.17L177.19 22.17Q176.17 22.17 175.21 21.92Q174.25 21.67 173.65 21.24ZM184.90 21.24L184.90 21.24L185.68 19.49Q186.25 19.86 186.99 20.09Q187.73 20.32 188.45 20.32L188.45 20.32Q189.82 20.32 189.83 19.64L189.83 19.64Q189.83 19.28 189.44 19.11Q189.05 18.93 188.18 18.74L188.18 18.74Q187.23 18.53 186.59 18.30Q185.96 18.06 185.50 17.55Q185.05 17.03 185.05 16.16L185.05 16.16Q185.05 15.39 185.47 14.77Q185.89 14.15 186.72 13.79Q187.56 13.43 188.77 13.43L188.77 13.43Q189.59 13.43 190.40 13.62Q191.20 13.80 191.82 14.17L191.82 14.17L191.09 15.93Q189.88 15.28 188.75 15.28L188.75 15.28Q188.04 15.28 187.72 15.49Q187.40 15.70 187.40 16.04L187.40 16.04Q187.40 16.37 187.78 16.54Q188.17 16.71 189.02 16.89L189.02 16.89Q189.98 17.10 190.61 17.33Q191.24 17.56 191.70 18.07Q192.16 18.58 192.16 19.46L192.16 19.46Q192.16 20.21 191.74 20.83Q191.33 21.44 190.49 21.80Q189.64 22.17 188.44 22.17L188.44 22.17Q187.42 22.17 186.46 21.92Q185.50 21.67 184.90 21.24ZM199.12 22L196.74 22L196.74 13.60L199.12 13.60L199.12 22ZM206.62 22L204.29 22L204.29 13.60L206.25 13.60L209.96 18.07L209.96 13.60L212.28 13.60L212.28 22L210.33 22L206.62 17.52L206.62 22ZM217.02 17.80L217.02 17.80Q217.02 16.54 217.62 15.54Q218.21 14.55 219.28 13.99Q220.35 13.43 221.70 13.43L221.70 13.43Q222.87 13.43 223.81 13.83Q224.75 14.22 225.37 14.97L225.37 14.97L223.86 16.33Q223.01 15.40 221.84 15.40L221.84 15.40Q221.82 15.40 221.82 15.40L221.82 15.40Q220.74 15.40 220.08 16.06Q219.42 16.71 219.42 17.80L219.42 17.80Q219.42 18.50 219.72 19.04Q220.02 19.59 220.56 19.89Q221.10 20.20 221.79 20.20L221.79 20.20Q222.48 20.20 223.08 19.93L223.08 19.93L223.08 17.62L225.18 17.62L225.18 21.10Q224.45 21.61 223.52 21.89Q222.59 22.17 221.65 22.17L221.65 22.17Q220.33 22.17 219.27 21.61Q218.21 21.05 217.62 20.05Q217.02 19.06 217.02 17.80Z" fill="#FFFFFF" x="147.81"/></svg>