<svg xmlns="http://www.w3.org/2000/svg" width="182.5" height="35" viewBox="0 0 182.5 35"><rect class="svg__rect" x="0" y="0" width="82.13" height="35" fill="#005384"/><rect class="svg__rect" x="80.13" y="0" width="102.37" height="35" fill="#8FC965"/><path class="svg__text" d="M15.70 22L14.22 22L14.22 13.47L17.48 13.47Q18.91 13.47 19.75 14.21Q20.59 14.96 20.59 16.18L20.59 16.18Q20.59 17.44 19.77 18.13Q18.95 18.83 17.46 18.83L17.46 18.83L15.70 18.83L15.70 22ZM15.70 14.66L15.70 17.64L17.48 17.64Q18.27 17.64 18.69 17.27Q19.10 16.90 19.10 16.19L19.10 16.19Q19.10 15.50 18.68 15.09Q18.26 14.68 17.52 14.66L17.52 14.66L15.70 14.66ZM26.91 18.86L24.05 13.47L25.70 13.47L27.66 17.51L29.62 13.47L31.26 13.47L28.40 18.86L28.40 22L26.91 22L26.91 18.86ZM40.53 22L35.18 22L35.18 13.47L36.66 13.47L36.66 20.82L40.53 20.82L40.53 22ZM46.22 22L44.74 22L44.74 13.47L46.22 13.47L46.22 22ZM52.51 22L51.03 22L51.03 13.47L52.51 13.47L56.33 19.54L56.33 13.47L57.80 13.47L57.80 22L56.32 22L52.51 15.95L52.51 22ZM64.22 14.66L61.58 14.66L61.58 13.47L68.35 13.47L68.35 14.66L65.69 14.66L65.69 22L64.22 22L64.22 14.66Z" fill="#FFFFFF"/><path class="svg__text" d="M96.70 22L94.32 22L94.32 13.60L98.16 13.60Q99.30 13.60 100.14 13.98Q100.98 14.35 101.44 15.06Q101.89 15.76 101.89 16.71L101.89 16.71Q101.89 17.66 101.44 18.35Q100.98 19.05 100.14 19.42Q99.30 19.80 98.16 19.80L98.16 19.80L96.70 19.80L96.70 22ZM96.70 15.47L96.70 17.93L98.02 17.93Q98.75 17.93 99.12 17.61Q99.49 17.29 99.49 16.71L99.49 16.71Q99.49 16.12 99.12 15.80Q98.75 15.47 98.02 15.47L98.02 15.47L96.70 15.47ZM108.06 22L105.64 22L109.35 13.60L111.69 13.60L115.41 22L112.94 22L112.28 20.37L108.73 20.37L108.06 22ZM110.50 15.93L109.42 18.61L111.58 18.61L110.50 15.93ZM118.97 21.24L118.97 21.24L119.75 19.49Q120.32 19.86 121.06 20.09Q121.80 20.32 122.52 20.32L122.52 20.32Q123.89 20.32 123.90 19.64L123.90 19.64Q123.90 19.28 123.51 19.11Q123.12 18.93 122.25 18.74L122.25 18.74Q121.30 18.53 120.66 18.30Q120.03 18.06 119.57 17.55Q119.12 17.03 119.12 16.16L119.12 16.16Q119.12 15.39 119.54 14.77Q119.96 14.15 120.79 13.79Q121.63 13.43 122.84 13.43L122.84 13.43Q123.66 13.43 124.47 13.62Q125.27 13.80 125.89 14.17L125.89 14.17L125.16 15.93Q123.95 15.28 122.82 15.28L122.82 15.28Q122.11 15.28 121.79 15.49Q121.47 15.70 121.47 16.04L121.47 16.04Q121.47 16.37 121.85 16.54Q122.24 16.71 123.09 16.89L123.09 16.89Q124.05 17.10 124.68 17.33Q125.31 17.56 125.77 18.07Q126.23 18.58 126.23 19.46L126.23 19.46Q126.23 20.21 125.81 20.83Q125.40 21.44 124.56 21.80Q123.71 22.17 122.51 22.17L122.51 22.17Q121.49 22.17 120.53 21.92Q119.57 21.67 118.97 21.24ZM130.22 21.24L130.22 21.24L131.00 19.49Q131.57 19.86 132.31 20.09Q133.05 20.32 133.77 20.32L133.77 20.32Q135.14 20.32 135.15 19.64L135.15 19.64Q135.15 19.28 134.76 19.11Q134.37 18.93 133.50 18.74L133.50 18.74Q132.55 18.53 131.91 18.30Q131.28 18.06 130.82 17.55Q130.37 17.03 130.37 16.16L130.37 16.16Q130.37 15.39 130.79 14.77Q131.21 14.15 132.04 13.79Q132.88 13.43 134.09 13.43L134.09 13.43Q134.91 13.43 135.72 13.62Q136.52 13.80 137.14 14.17L137.14 14.17L136.41 15.93Q135.20 15.28 134.07 15.28L134.07 15.28Q133.36 15.28 133.04 15.49Q132.72 15.70 132.72 16.04L132.72 16.04Q132.72 16.37 133.10 16.54Q133.49 16.71 134.34 16.89L134.34 16.89Q135.30 17.10 135.93 17.33Q136.56 17.56 137.02 18.07Q137.48 18.58 137.48 19.46L137.48 19.46Q137.48 20.21 137.06 20.83Q136.65 21.44 135.81 21.80Q134.96 22.17 133.76 22.17L133.76 22.17Q132.74 22.17 131.78 21.92Q130.82 21.67 130.22 21.24ZM144.44 22L142.06 22L142.06 13.60L144.44 13.60L144.44 22ZM151.94 22L149.61 22L149.61 13.60L151.57 13.60L155.28 18.07L155.28 13.60L157.60 13.60L157.60 22L155.65 22L151.94 17.52L151.94 22ZM162.34 17.80L162.34 17.80Q162.34 16.54 162.94 15.54Q163.53 14.55 164.60 13.99Q165.67 13.43 167.02 13.43L167.02 13.43Q168.19 13.43 169.13 13.83Q170.07 14.22 170.69 14.97L170.69 14.97L169.18 16.33Q168.33 15.40 167.16 15.40L167.16 15.40Q167.14 15.40 167.14 15.40L167.14 15.40Q166.06 15.40 165.40 16.06Q164.74 16.71 164.74 17.80L164.74 17.80Q164.74 18.50 165.04 19.04Q165.34 19.59 165.88 19.89Q166.42 20.20 167.11 20.20L167.11 20.20Q167.80 20.20 168.40 19.93L168.40 19.93L168.40 17.62L170.50 17.62L170.50 21.10Q169.77 21.61 168.84 21.89Q167.91 22.17 166.97 22.17L166.97 22.17Q165.65 22.17 164.59 21.61Q163.53 21.05 162.94 20.05Q162.34 19.06 162.34 17.80Z" fill="#FFFFFF" x="93.13"/></svg>