<svg xmlns="http://www.w3.org/2000/svg" width="350.98" height="35" viewBox="0 0 350.98 35"><rect class="svg__rect" x="0" y="0" width="98.45" height="35" fill="#31C4F3"/><rect class="svg__rect" x="96.45" y="0" width="254.53000000000003" height="35" fill="#389AD5"/><path class="svg__text" d="M15.60 22L13.63 13.47L15.10 13.47L16.43 19.88L18.06 13.47L19.30 13.47L20.91 19.89L22.22 13.47L23.69 13.47L21.72 22L20.31 22L18.68 15.77L17.02 22L15.60 22ZM27.49 18.00L27.49 18.00L27.49 17.52Q27.49 16.28 27.94 15.32Q28.38 14.37 29.18 13.86Q29.99 13.35 31.03 13.35Q32.08 13.35 32.88 13.85Q33.69 14.35 34.13 15.29Q34.57 16.23 34.57 17.48L34.57 17.48L34.57 17.96Q34.57 19.21 34.14 20.16Q33.71 21.10 32.90 21.61Q32.09 22.12 31.05 22.12L31.05 22.12Q30.01 22.12 29.20 21.61Q28.39 21.10 27.94 20.17Q27.50 19.23 27.49 18.00ZM28.98 17.46L28.98 17.96Q28.98 19.36 29.52 20.13Q30.07 20.90 31.05 20.90L31.05 20.90Q32.03 20.90 32.56 20.15Q33.09 19.40 33.09 17.96L33.09 17.96L33.09 17.51Q33.09 16.09 32.55 15.34Q32.02 14.58 31.03 14.58L31.03 14.58Q30.07 14.58 29.53 15.33Q28.99 16.09 28.98 17.46L28.98 17.46ZM40.52 22L39.04 22L39.04 13.47L42.04 13.47Q43.51 13.47 44.32 14.13Q45.12 14.79 45.12 16.05L45.12 16.05Q45.12 16.90 44.71 17.48Q44.29 18.06 43.56 18.37L43.56 18.37L45.47 21.92L45.47 22L43.88 22L42.17 18.71L40.52 18.71L40.52 22ZM40.52 14.66L40.52 17.52L42.04 17.52Q42.79 17.52 43.22 17.15Q43.64 16.77 43.64 16.11L43.64 16.11Q43.64 15.43 43.25 15.05Q42.86 14.68 42.08 14.66L42.08 14.66L40.52 14.66ZM51.00 22L49.51 22L49.51 13.47L51.00 13.47L51.00 17.47L51.82 16.46L54.31 13.47L56.11 13.47L52.94 17.25L56.29 22L54.53 22L51.96 18.31L51.00 19.34L51.00 22ZM65.77 18.00L65.77 18.00L65.77 17.52Q65.77 16.28 66.22 15.32Q66.66 14.37 67.46 13.86Q68.27 13.35 69.31 13.35Q70.36 13.35 71.16 13.85Q71.97 14.35 72.41 15.29Q72.85 16.23 72.85 17.48L72.85 17.48L72.85 17.96Q72.85 19.21 72.42 20.16Q71.98 21.10 71.18 21.61Q70.37 22.12 69.32 22.12L69.32 22.12Q68.29 22.12 67.48 21.61Q66.66 21.10 66.22 20.17Q65.78 19.23 65.77 18.00ZM67.26 17.46L67.26 17.96Q67.26 19.36 67.80 20.13Q68.35 20.90 69.32 20.90L69.32 20.90Q70.31 20.90 70.84 20.15Q71.37 19.40 71.37 17.96L71.37 17.96L71.37 17.51Q71.37 16.09 70.83 15.34Q70.30 14.58 69.31 14.58L69.31 14.58Q68.35 14.58 67.81 15.33Q67.27 16.09 67.26 17.46L67.26 17.46ZM78.80 22L77.32 22L77.32 13.47L78.80 13.47L82.61 19.54L82.61 13.47L84.08 13.47L84.08 22L82.60 22L78.80 15.95L78.80 22Z" fill="#FFFFFF"/><path class="svg__text" d="M117.02 22L110.64 22L110.64 13.60L113.02 13.60L113.02 20.11L117.02 20.11L117.02 22ZM123.82 22L121.44 22L121.44 13.60L123.82 13.60L123.82 22ZM131.33 22L129.00 22L129.00 13.60L130.95 13.60L134.66 18.07L134.66 13.60L136.99 13.60L136.99 22L135.04 22L131.33 17.52L131.33 22ZM142.08 18.26L142.08 18.26L142.08 13.60L144.46 13.60L144.46 18.19Q144.46 20.20 146.05 20.20L146.05 20.20Q147.63 20.20 147.63 18.19L147.63 18.19L147.63 13.60L149.98 13.60L149.98 18.26Q149.98 20.13 148.94 21.15Q147.90 22.17 146.03 22.17L146.03 22.17Q144.15 22.17 143.12 21.15Q142.08 20.13 142.08 18.26ZM156.92 22L154.20 22L157.26 17.75L154.33 13.60L157.01 13.60L158.69 16.02L160.34 13.60L162.92 13.60L159.99 17.66L163.11 22L160.37 22L158.63 19.40L156.92 22ZM168.14 23.20L166.11 23.20L170.07 11.90L172.10 11.90L168.14 23.20ZM178.05 22L175.85 22L175.85 13.60L177.81 13.60L180.76 18.45L183.65 13.60L185.60 13.60L185.62 22L183.44 22L183.42 17.55L181.26 21.17L180.20 21.17L178.05 17.67L178.05 22ZM192.20 22L189.77 22L193.48 13.60L195.83 13.60L199.54 22L197.08 22L196.41 20.37L192.86 20.37L192.20 22ZM194.64 15.93L193.55 18.61L195.72 18.61L194.64 15.93ZM203.27 17.80L203.27 17.80Q203.27 16.54 203.87 15.54Q204.46 14.55 205.52 13.99Q206.57 13.43 207.89 13.43L207.89 13.43Q209.04 13.43 209.96 13.84Q210.89 14.25 211.50 15.02L211.50 15.02L209.99 16.39Q209.17 15.40 208.01 15.40L208.01 15.40Q207.32 15.40 206.79 15.70Q206.26 16 205.96 16.54Q205.67 17.09 205.67 17.80L205.67 17.80Q205.67 18.51 205.96 19.05Q206.26 19.60 206.79 19.90Q207.32 20.20 208.01 20.20L208.01 20.20Q209.17 20.20 209.99 19.22L209.99 19.22L211.50 20.58Q210.89 21.35 209.97 21.76Q209.04 22.17 207.89 22.17L207.89 22.17Q206.57 22.17 205.52 21.61Q204.46 21.05 203.87 20.05Q203.27 19.06 203.27 17.80ZM215.61 17.80L215.61 17.80Q215.61 16.55 216.21 15.55Q216.82 14.56 217.88 14.00Q218.94 13.43 220.27 13.43L220.27 13.43Q221.60 13.43 222.67 14.00Q223.73 14.56 224.34 15.55Q224.94 16.55 224.94 17.80L224.94 17.80Q224.94 19.05 224.34 20.04Q223.73 21.04 222.67 21.60Q221.61 22.17 220.27 22.17L220.27 22.17Q218.94 22.17 217.88 21.60Q216.82 21.04 216.21 20.04Q215.61 19.05 215.61 17.80ZM218.01 17.80L218.01 17.80Q218.01 18.51 218.31 19.05Q218.61 19.60 219.12 19.90Q219.64 20.20 220.27 20.20L220.27 20.20Q220.91 20.20 221.43 19.90Q221.94 19.60 222.24 19.05Q222.54 18.51 222.54 17.80L222.54 17.80Q222.54 17.09 222.24 16.54Q221.94 16 221.43 15.70Q220.91 15.40 220.27 15.40L220.27 15.40Q219.63 15.40 219.12 15.70Q218.61 16 218.31 16.54Q218.01 17.09 218.01 17.80ZM229.09 21.24L229.09 21.24L229.86 19.49Q230.43 19.86 231.17 20.09Q231.92 20.32 232.64 20.32L232.64 20.32Q234.00 20.32 234.01 19.64L234.01 19.64Q234.01 19.28 233.62 19.11Q233.23 18.93 232.36 18.74L232.36 18.74Q231.41 18.53 230.78 18.30Q230.14 18.06 229.69 17.55Q229.23 17.03 229.23 16.16L229.23 16.16Q229.23 15.39 229.65 14.77Q230.07 14.15 230.90 13.79Q231.74 13.43 232.95 13.43L232.95 13.43Q233.77 13.43 234.58 13.62Q235.38 13.80 236.00 14.17L236.00 14.17L235.27 15.93Q234.07 15.28 232.93 15.28L232.93 15.28Q232.23 15.28 231.90 15.49Q231.58 15.70 231.58 16.04L231.58 16.04Q231.58 16.37 231.97 16.54Q232.35 16.71 233.20 16.89L233.20 16.89Q234.16 17.10 234.79 17.33Q235.42 17.56 235.88 18.07Q236.34 18.58 236.34 19.46L236.34 19.46Q236.34 20.21 235.93 20.83Q235.51 21.44 234.67 21.80Q233.83 22.17 232.62 22.17L232.62 22.17Q231.60 22.17 230.64 21.92Q229.68 21.67 229.09 21.24ZM241.67 23.20L239.64 23.20L243.60 11.90L245.63 11.90L241.67 23.20ZM251.46 22L248.74 13.60L251.19 13.60L252.87 18.96L254.65 13.60L256.84 13.60L258.53 19.01L260.29 13.60L262.56 13.60L259.84 22L257.29 22L255.69 16.89L254.01 22L251.46 22ZM269.45 22L267.07 22L267.07 13.60L269.45 13.60L269.45 22ZM276.96 22L274.62 22L274.62 13.60L276.58 13.60L280.29 18.07L280.29 13.60L282.62 13.60L282.62 22L280.67 22L276.96 17.52L276.96 22ZM291.75 22L287.78 22L287.78 13.60L291.75 13.60Q293.13 13.60 294.20 14.12Q295.27 14.63 295.86 15.58Q296.44 16.53 296.44 17.80L296.44 17.80Q296.44 19.07 295.86 20.02Q295.27 20.97 294.20 21.48Q293.13 22 291.75 22L291.75 22ZM290.16 15.50L290.16 20.10L291.66 20.10Q292.74 20.10 293.39 19.49Q294.04 18.88 294.04 17.80L294.04 17.80Q294.04 16.72 293.39 16.11Q292.74 15.50 291.66 15.50L291.66 15.50L290.16 15.50ZM300.75 17.80L300.75 17.80Q300.75 16.55 301.35 15.55Q301.95 14.56 303.02 14.00Q304.08 13.43 305.41 13.43L305.41 13.43Q306.74 13.43 307.80 14.00Q308.87 14.56 309.47 15.55Q310.08 16.55 310.08 17.80L310.08 17.80Q310.08 19.05 309.47 20.04Q308.87 21.04 307.81 21.60Q306.75 22.17 305.41 22.17L305.41 22.17Q304.08 22.17 303.02 21.60Q301.95 21.04 301.35 20.04Q300.75 19.05 300.75 17.80ZM303.14 17.80L303.14 17.80Q303.14 18.51 303.44 19.05Q303.75 19.60 304.26 19.90Q304.78 20.20 305.41 20.20L305.41 20.20Q306.05 20.20 306.56 19.90Q307.08 19.60 307.38 19.05Q307.68 18.51 307.68 17.80L307.68 17.80Q307.68 17.09 307.38 16.54Q307.08 16 306.56 15.70Q306.05 15.40 305.41 15.40L305.41 15.40Q304.77 15.40 304.26 15.70Q303.75 16 303.44 16.54Q303.14 17.09 303.14 17.80ZM316.89 22L314.16 13.60L316.61 13.60L318.30 18.96L320.08 13.60L322.26 13.60L323.95 19.01L325.72 13.60L327.99 13.60L325.26 22L322.72 22L321.11 16.89L319.43 22L316.89 22ZM331.91 21.24L331.91 21.24L332.69 19.49Q333.25 19.86 334.00 20.09Q334.74 20.32 335.46 20.32L335.46 20.32Q336.83 20.32 336.83 19.64L336.83 19.64Q336.83 19.28 336.44 19.11Q336.05 18.93 335.19 18.74L335.19 18.74Q334.24 18.53 333.60 18.30Q332.97 18.06 332.51 17.55Q332.06 17.03 332.06 16.16L332.06 16.16Q332.06 15.39 332.48 14.77Q332.90 14.15 333.73 13.79Q334.57 13.43 335.77 13.43L335.77 13.43Q336.60 13.43 337.40 13.62Q338.21 13.80 338.83 14.17L338.83 14.17L338.09 15.93Q336.89 15.28 335.76 15.28L335.76 15.28Q335.05 15.28 334.73 15.49Q334.41 15.70 334.41 16.04L334.41 16.04Q334.41 16.37 334.79 16.54Q335.18 16.71 336.02 16.89L336.02 16.89Q336.99 17.10 337.62 17.33Q338.25 17.56 338.71 18.07Q339.17 18.58 339.17 19.46L339.17 19.46Q339.17 20.21 338.75 20.83Q338.33 21.44 337.49 21.80Q336.65 22.17 335.45 22.17L335.45 22.17Q334.43 22.17 333.47 21.92Q332.51 21.67 331.91 21.24Z" fill="#FFFFFF" x="109.45"/></svg>